<?xml version="1.0" encoding="iso-8859-1"?>
<!-- Generator: Adobe Illustrator 19.0.0, SVG Export Plug-In . SVG Version: 6.00 Build 0)  -->
<svg version="1.1" id="Capa_1" xmlns="http://www.w3.org/2000/svg" xmlns:xlink="http://www.w3.org/1999/xlink" x="0px" y="0px"
	 viewBox="0 0 511.999 511.999" style="enable-background:new 0 0 511.999 511.999;" xml:space="preserve">
<g>
	<g>
		<path d="M420.161,279.574c-0.802-21.688-0.507-38.129-8.395-66.296c-23.07-2.065-50.539,3.51-65.713,6.356
			c-2.145-17.64-2.201-31.607-20.155-67.819c-14.107,13.999-26.752,31.398-39.793,49.354
			c-58.904,81.097-83.396,99.883-203.447,92.839c-32.547-1.909-73.537-6.169-81.522,25.214
			c-14.962,58.766,119.565,158.026,298.075,122.466c97.277-19.379,182.384-76.922,206.295-174.144
			C480.255,257.993,437.482,273.589,420.161,279.574z"/>
	</g>
</g>
<g>
	<g>
		<path d="M511.998,62.81l-30.005,0.064c0.027,12.722-3.978,47.517-21.736,66.572c-35.688-16.963-81.021-13.994-110.375,3.38
			c4.55,8.691,15.388,30.584,21.028,52.113c36.805-4.666,51.723-0.601,63.848,2.204c5.248,14.867,10.058,30.089,13.011,52.309
			c16.812-3.904,41.973-7.592,62.939-1.744c3.677-34.463-0.661-67.023-25.51-91.194C511.762,114.55,512.004,65.139,511.998,62.81z"
			/>
	</g>
</g>
<g>
</g>
<g>
</g>
<g>
</g>
<g>
</g>
<g>
</g>
<g>
</g>
<g>
</g>
<g>
</g>
<g>
</g>
<g>
</g>
<g>
</g>
<g>
</g>
<g>
</g>
<g>
</g>
<g>
</g>
</svg>
